HIERARCHY
ROOT pelvis
{
  OFFSET 0 100 0
  CHANNELS 6 Xposition Yposition Zposition Zrotation Xrotation Yrotation
  JOINT pelvis_right_femur
  {
    OFFSET -10.78128 -3.44521 -0.5502486
    CHANNELS 3 Zrotation Xrotation Yrotation
    JOINT right_femur_tibia
    {
      OFFSET -0.8047443 -44.0398 -0.1307829
      CHANNELS 3 Zrotation Xrotation Yrotation
      JOINT right_tibia_foot
      {
        OFFSET 3.006224 -47.83518 -5
        CHANNELS 3 Zrotation Xrotation Yrotation
        End Site
        {
          OFFSET 0 -5 15
        }
      }
    }
  }
  JOINT pelvis_left_femur
  {
    OFFSET 10.78128 -3.44521 -0.5502486
    CHANNELS 3 Zrotation Xrotation Yrotation
    JOINT left_femur_tibia
    {
      OFFSET 0.8047443 -44.0398 -0.1307829
      CHANNELS 3 Zrotation Xrotation Yrotation
      JOINT left_tibia_foot
      {
        OFFSET -4.370144 -48.10324 -4.275266
        CHANNELS 3 Zrotation Xrotation Yrotation
        End Site
        {
          OFFSET 0 -5 15
        }
      }
    }
  }
  JOINT pelvis_spine1
  {
    OFFSET 0 6.468898 -3.129235
    CHANNELS 3 Zrotation Xrotation Yrotation
    JOINT spine1
    {
      OFFSET 0 23.15396 4.99043
      CHANNELS 3 Zrotation Xrotation Yrotation
      JOINT spine2
      {
        OFFSET 0 20.79997 -5.064912
        CHANNELS 3 Zrotation Xrotation Yrotation
        JOINT neck
        {
          OFFSET 0 14.38658 9.616178
          CHANNELS 3 Zrotation Xrotation Yrotation
          End Site
          {
            OFFSET 0 20 0
          }
        }
      }
      JOINT right_manubrium
      {
        OFFSET -5.722621 16.35077 3.967754
        CHANNELS 3 Zrotation Xrotation Yrotation
        JOINT right_clavicle
        {
          OFFSET -13.16364 1.694482 -4.693211
          CHANNELS 3 Zrotation Xrotation Yrotation
          JOINT right_humerus
          {
            OFFSET -28.5034 -0.3100689 -2.792744
            CHANNELS 3 Zrotation Xrotation Yrotation
            JOINT right_radius
            {
              OFFSET -25.15693 0.02248979 -1.271978
              CHANNELS 3 Zrotation Xrotation Yrotation
              End Site
              {
                OFFSET -15 0 0
              }
            }
          }
        }
      }
      JOINT left_manubrium
      {
        OFFSET 5.722621 16.35077 3.967754
        CHANNELS 3 Zrotation Xrotation Yrotation
        JOINT left_clavicle
        {
          OFFSET 13.16364 1.694482 -4.693211
          CHANNELS 3 Zrotation Xrotation Yrotation
          JOINT left_humerus
          {
            OFFSET 29.39168 -1.063119 -2.237045
            CHANNELS 3 Zrotation Xrotation Yrotation
            JOINT left_radius
            {
              OFFSET 24.59957 -0.9528479 0.9047498
              CHANNELS 3 Zrotation Xrotation Yrotation
              End Site
              {
                OFFSET 15 -0 -0
              }
            }
          }
        }
      }
    }
  }
}
MOTION
Frames: 7
Frame Time: 0.0416666666667
587.293 99.89272 2995.243 1.56914 -8.027358 9.388463 5.264819 -1.490799 4.087006 -0 16.91537 -0 -1.119907 -8.089289 -5.559484 -2.494809 -2.360949 -7.056038 -0 61.83042 -0 -9.187876 -5.454166 16.07817 -0.4874615 0.9548633 5.367749 0.6433391 10.28427 -5.050241 2.489965 23.59556 5.530376 2.832558 -15.4583 7.250631 5.179183 -13.80131 11.61384 85.71267 31.6939 -16.15973 -0 0 9.548044 -21.25109 17.34237 9.522732 4.689453 -18.78085 -3.410505 -87.89979 22.69915 12.81995 0 0 -16.88897 1.304327 11.26138 10.98095
588.067 100.692 3000.934 2.02824 -8.903451 8.388439 4.825615 3.516574 3.879604 -0 15.59413 -0 -2.457763 -10.14339 -4.979225 -2.150763 -8.291402 -6.676459 -0 57.93604 -0 -8.136152 -6.199286 18.21226 -1.001014 1.691602 5.848601 0.2757032 9.766034 -4.027474 2.731461 24.46641 4.918715 2.542687 -15.0065 7.06854 3.986635 -14.76509 11.3507 84.44183 29.99677 -12.93159 -0 0 11.06903 -20.73923 14.74305 9.763012 4.785239 -17.86736 -3.17967 -89.56759 23.10791 14.2993 0 0 -13.68551 1.145244 11.58346 10.59885
588.8461 100.8301 3006.352 2.261106 -9.188141 7.439128 4.375894 7.628098 3.610776 -0 13.48986 -0 -3.38623 -11.7563 -4.145647 -1.485019 -13.89057 -6.151247 -0 50.25866 -0 -7.29106 -7.201228 19.85308 -1.30215 2.204286 6.288433 -0.1344117 9.313416 -3.192516 2.792632 24.8295 4.582441 2.411087 -14.78508 6.840944 2.861587 -16.13731 11.13487 83.16885 28.33382 -10.02646 -0 0 13.34758 -20.91727 12.52728 10.42405 5.02791 -17.1871 -3.099011 -91.05826 23.35431 16.2012 0 0 -11.55152 0.7422226 11.52366 10.71492
589.7349 100.3193 3011.739 2.180288 -8.792665 6.547089 3.978655 11.06157 3.413401 -0 11.54907 -0 -3.505737 -13.16617 -3.057202 -0.469622 -18.96001 -5.423048 -0 40.52951 -0 -6.776701 -7.854996 20.74771 -1.287446 2.350229 6.726095 -0.5428539 9.025827 -2.635893 2.636644 24.60035 4.588996 2.395915 -14.85529 6.645367 2.063703 -17.78533 11.04006 81.75844 27.15473 -7.523094 -0 0 16.2971 -21.87959 11.25323 11.50115 5.255514 -16.67451 -3.060439 -92.20835 23.26649 18.49416 0 0 -10.54472 0.2167251 11.03299 11.26053
590.8136 99.33366 3017.331 1.819888 -7.788754 5.71262 3.597784 14.08391 3.315235 -0 10.70791 -0 -2.71162 -14.53103 -1.82107 0.7150826 -23.22461 -4.593575 -0 30.63328 -0 -6.526881 -7.901568 20.87902 -1.048991 2.070821 7.168918 -0.8876574 8.880471 -2.374648 2.317781 23.90943 4.891735 2.432832 -15.20231 6.563068 1.712541 -19.41737 11.06212 80.1606 26.76271 -5.391168 -0 0 19.51582 -23.45531 11.08137 12.8692 5.345844 -16.22235 -2.925541 -92.9472 22.85511 20.93342 0 0 -10.2836 -0.2746969 10.29921 12.01673
592.1219 98.13929 3023.308 1.34332 -6.434812 4.946306 3.119638 16.83091 3.279291 -0 11.69253 -0 -1.258868 -15.63451 -0.6450802 1.639117 -26.27023 -3.985256 -0 22.35552 -0 -6.340243 -7.483855 20.47799 -0.8288899 1.409593 7.589541 -1.110821 8.774776 -2.344903 1.973791 23.0512 5.340356 2.464801 -15.76361 6.649907 1.739021 -20.66992 11.11226 78.55445 27.11569 -3.633471 -0 0 22.36065 -25.23895 11.71002 14.28825 5.25334 -15.7237 -2.599646 -93.35225 22.28986 23.16876 0 0 -10.0665 -0.6263118 9.644406 12.72854
593.6568 97.02449 3029.761 1.031168 -5.154844 4.27885 2.380114 19.20739 3.252504 -0 14.90173 -0 0.3145266 -15.71748 0.2078408 1.717162 -27.67883 -4.052184 -0 17.2031 -0 -6.025562 -7.033085 19.93091 -0.9223436 0.5258561 7.951011 -1.211595 8.626569 -2.403412 1.763791 22.37514 5.763336 2.503189 -16.43084 6.89817 1.953798 -21.23418 11.06728 77.34461 27.85161 -2.411588 -0 0 24.12697 -26.7473 12.51928 15.415 5.027449 -15.14648 -2.125382 -93.59935 21.78949 24.84853 0 0 -9.233181 -0.8010301 9.336058 13.19371
